External Loads File
version=1
nRows=77
nColumns=13
Range=5.000000e-03-10 seconds
endheader
time 	forceRightX 	forceRightY 	forceRightZ 	pointRightX 	pointRightY 	pointRightZ 	forceLeftX 	forceLeftY 	forceLeftZ 	pointLeftX 	pointLeftY 	pointLeftZ 		
5.005000 61.486367 612.751290 -0.000000 0.410940 0.411615 -0.166144 5.422228 -171.870063 -0.000000 0.153457 0.192910 -0.410920
5.010000 50.368690 644.011817 -0.000000 0.414824 0.403418 -0.166174 -11.517559 -197.056995 -0.000000 0.150023 0.200682 -0.410725
5.015000 36.139281 668.322113 -0.000000 0.418350 0.395124 -0.166149 -27.693959 -214.308700 -0.000000 0.147096 0.208354 -0.410504
5.020000 20.726740 685.833714 -0.000000 0.421534 0.386465 -0.165954 -42.244561 -223.620357 -0.000000 0.144474 0.216185 -0.410324
5.025000 5.355201 697.381568 -0.000000 0.424468 0.377556 -0.166051 -54.057976 -225.735118 -0.000000 0.142054 0.224407 -0.410101
5.030000 -9.515955 704.246562 -0.000000 0.427029 0.368361 -0.166023 -62.064332 -222.012392 -0.000000 0.139925 0.232996 -0.409852
5.035000 -22.523289 707.921156 -0.000000 0.429298 0.358943 -0.165887 -65.934781 -213.966846 -0.000000 0.138021 0.242262 -0.409710
5.040000 -34.116125 709.821553 -0.000000 0.431295 0.349270 -0.165986 -65.271837 -203.213113 -0.000000 0.136405 0.251639 -0.409483
5.045000 -43.310120 711.148420 -0.000000 0.432729 0.339336 -0.166295 -60.634829 -190.992597 -0.000000 0.135214 0.261367 -0.409432
5.050000 -50.772060 712.677773 -0.000000 0.433735 0.329437 -0.166451 -52.556881 -178.336346 -0.000000 0.134402 0.271071 -0.409317
5.055000 -55.038010 714.970127 -0.000000 0.434255 0.319441 -0.166583 -42.341434 -165.730662 -0.000000 0.134094 0.281014 -0.409323
5.060000 -56.241110 718.166005 -0.000000 0.434177 0.309333 -0.166683 -30.844363 -153.509161 -0.000000 0.134284 0.290900 -0.409227
5.065000 -54.112125 722.191417 -0.000000 0.433467 0.299225 -0.166840 -18.875167 -141.805451 -0.000000 0.134915 0.300787 -0.409114
5.070000 -48.521326 726.835566 -0.000000 0.432216 0.289127 -0.167204 -7.007650 -130.711391 -0.000000 0.136078 0.310669 -0.409095
5.075000 -38.292299 731.899472 -0.000000 0.430528 0.278620 -0.167196 4.189019 -120.345041 -0.000000 0.137730 0.320655 -0.409179
5.080000 -26.575888 736.943553 -0.000000 0.428213 0.268632 -0.167346 14.983503 -110.811783 -0.000000 0.139870 0.330481 -0.409167
5.085000 -12.528188 741.820799 -0.000000 0.425561 0.258778 -0.167486 25.035463 -102.156077 -0.000000 0.142679 0.340265 -0.409352
5.090000 3.586886 746.348955 -0.000000 0.422424 0.249026 -0.167533 34.283861 -94.396118 -0.000000 0.145870 0.350096 -0.409348
5.095000 19.664145 750.476484 -0.000000 0.418723 0.239514 -0.167395 42.909644 -87.419599 -0.000000 0.149562 0.359359 -0.409196
5.100000 36.298288 754.311949 -0.000000 0.414604 0.230177 -0.167148 50.741989 -81.245936 -0.000000 0.153757 0.368435 -0.409151
5.105000 53.379794 758.034517 -0.000000 0.410062 0.221043 -0.166968 57.706006 -75.940190 -0.000000 0.158458 0.377436 -0.409083
5.110000 69.701735 761.927079 -0.000000 0.404993 0.212312 -0.166834 63.772920 -71.517876 -0.000000 0.163591 0.386035 -0.408813
5.115000 85.523749 766.173231 -0.000000 0.399495 0.203997 -0.166653 68.660347 -68.120414 -0.000000 0.169219 0.394332 -0.408578
5.120000 101.571686 770.862172 -0.000000 0.393519 0.195794 -0.166279 71.988409 -65.956917 -0.000000 0.175361 0.402283 -0.408492
5.125000 117.258882 776.212586 -0.000000 0.387152 0.187924 -0.166007 73.496730 -65.066308 -0.000000 0.181931 0.409921 -0.408420
5.130000 132.375006 782.375886 -0.000000 0.380457 0.180451 -0.165830 72.947082 -65.390727 -0.000000 0.189016 0.417077 -0.408440
5.135000 147.031121 789.387761 -0.000000 0.373327 0.173414 -0.165601 70.195479 -66.779028 -0.000000 0.196447 0.423777 -0.408381
5.140000 162.126662 797.023153 -0.000000 0.365922 0.166427 -0.165398 65.192932 -69.040746 -0.000000 0.204385 0.430102 -0.408459
5.145000 176.773636 805.250540 -0.000000 0.358164 0.160113 -0.165113 58.197455 -71.710102 -0.000000 0.212750 0.435781 -0.408541
5.150000 191.467132 813.574052 -0.000000 0.350080 0.154308 -0.164341 49.478832 -74.365852 -0.000000 0.221369 0.441034 -0.409003
5.155000 205.801621 821.452317 -0.000000 0.341836 0.148973 -0.164182 39.475868 -76.550781 -0.000000 0.230198 0.445808 -0.408341
5.160000 220.036928 827.966364 -0.000000 0.333439 0.144080 -0.163991 28.596663 -77.944797 -0.000000 0.239234 0.450018 -0.408266
5.165000 233.699977 832.227155 -0.000000 0.324862 0.139595 -0.163759 17.288392 -78.294924 -0.000000 0.248208 0.453766 -0.408600
5.170000 247.382064 832.958554 -0.000000 0.316202 0.135730 -0.163454 5.824171 -77.421711 -0.000000 0.257582 0.456997 -0.408605
5.175000 260.760609 829.089870 -0.000000 0.307345 0.132167 -0.163152 -5.511659 -75.073333 -0.000000 0.267122 0.459858 -0.408474
5.180000 273.009358 819.785346 -0.000000 0.298355 0.129584 -0.162935 -16.415956 -70.967794 -0.000000 0.276790 0.462020 -0.408410
5.185000 283.715736 804.288278 -0.000000 0.289309 0.127693 -0.162766 -26.608252 -64.849807 -0.000000 0.286556 0.463827 -0.408402
5.190000 293.024374 781.924927 -0.000000 0.280094 0.126459 -0.162512 -35.826479 -56.500644 -0.000000 0.296522 0.464949 -0.408380
5.195000 298.913877 753.128324 -0.000000 0.270826 0.126096 -0.162329 -43.649774 -45.914683 -0.000000 0.306019 0.465518 -0.408319
5.200000 301.978481 717.605969 -0.000000 0.261475 0.126287 -0.162007 -49.889462 -33.126684 -0.000000 0.315384 0.465635 -0.408183
5.205000 301.308383 675.806656 -0.000000 0.252334 0.127213 -0.161843 -54.305919 -18.333696 -0.000000 0.324486 0.465214 -0.408098
5.210000 297.198904 627.808836 -0.000000 0.243134 0.128798 -0.161632 -56.746802 -1.647226 -0.000000 0.333190 0.464234 -0.408206
5.215000 289.381847 574.049759 -0.000000 0.234162 0.130942 -0.161753 -57.051437 16.855371 -0.000000 0.341663 0.462750 -0.408418
5.220000 277.877208 514.974036 -0.000000 0.225301 0.133878 -0.161800 -55.107445 37.255489 -0.000000 0.349599 0.460685 -0.408767
5.225000 262.670522 451.254859 -0.000000 0.216595 0.137449 -0.161994 -50.903396 59.796193 -0.000000 0.356970 0.458074 -0.409230
5.230000 244.083833 383.711177 -0.000000 0.207837 0.141597 -0.162830 -44.540747 84.893639 -0.000000 0.363733 0.454965 -0.409799
5.235000 222.053531 313.833331 -0.000000 0.199848 0.146399 -0.163175 -36.375842 112.975157 -0.000000 0.370009 0.450950 -0.410347
5.240000 196.911125 243.324215 -0.000000 0.192283 0.151799 -0.163203 -27.020057 144.470889 -0.000000 0.375582 0.447014 -0.410924
5.245000 169.488570 173.817545 -0.000000 0.185339 0.157086 -0.162840 -17.319200 179.800944 -0.000000 0.380481 0.442550 -0.411379
5.250000 141.088503 106.530542 -0.000000 0.178699 0.163038 -0.162634 -8.015920 219.387810 -0.000000 0.384745 0.438064 -0.411721
5.255000 112.722547 42.550164 -0.000000 0.172309 0.169467 -0.162751 0.324165 263.492242 -0.000000 0.388778 0.432978 -0.412191
5.260000 84.894172 -16.831923 -0.000000 0.166648 0.176460 -0.162945 6.560073 312.036422 -0.000000 0.392385 0.427223 -0.412592
5.265000 58.003558 -70.728332 -0.000000 0.161368 0.183515 -0.162886 10.206831 364.453377 -0.000000 0.395933 0.420785 -0.413183
5.270000 32.033988 -118.251584 -0.000000 0.156682 0.191574 -0.163205 11.451123 419.546317 -0.000000 0.399182 0.413612 -0.413407
5.275000 7.203149 -158.381521 -0.000000 0.152349 0.199453 -0.163611 9.740100 475.570854 -0.000000 0.402300 0.405846 -0.413344
5.280000 -16.131829 -190.307065 -0.000000 0.148549 0.207357 -0.163977 5.210743 530.385410 -0.000000 0.405170 0.397621 -0.413407
5.285000 -37.659982 -213.435491 -0.000000 0.145292 0.215529 -0.164258 -1.169445 581.801626 -0.000000 0.407815 0.388894 -0.413676
5.290000 -56.777932 -227.594877 -0.000000 0.142367 0.223844 -0.164483 -8.700269 627.995217 -0.000000 0.410200 0.379686 -0.413792
5.295000 -72.517909 -233.274347 -0.000000 0.139809 0.232322 -0.164604 -17.346576 667.725441 -0.000000 0.412401 0.370394 -0.413812
5.300000 -84.488312 -231.413492 -0.000000 0.137359 0.241077 -0.164858 -25.590700 700.410748 -0.000000 0.414255 0.360660 -0.413968
5.305000 -91.990393 -223.554823 -0.000000 0.135467 0.250196 -0.164909 -33.545569 726.008933 -0.000000 0.415986 0.350787 -0.413912
5.310000 -94.842632 -211.405124 -0.000000 0.134058 0.259633 -0.164799 -41.204755 745.004694 -0.000000 0.417280 0.340788 -0.413972
5.315000 -93.594800 -196.465158 -0.000000 0.133022 0.269423 -0.164829 -47.635477 758.423627 -0.000000 0.418385 0.330495 -0.413923
5.320000 -88.693287 -180.203567 -0.000000 0.132465 0.279481 -0.164847 -53.515686 767.534286 -0.000000 0.419106 0.320080 -0.413611
5.325000 -80.940916 -163.699211 -0.000000 0.132365 0.289678 -0.164903 -59.030440 773.728700 -0.000000 0.419432 0.309546 -0.413596
5.330000 -71.216580 -147.666370 -0.000000 0.132900 0.300062 -0.164966 -64.164345 778.357126 -0.000000 0.419461 0.298979 -0.413936
5.335000 -60.327372 -132.527677 -0.000000 0.133869 0.310593 -0.165231 -68.711050 782.678388 -0.000000 0.418772 0.288339 -0.413492
5.340000 -48.812613 -118.562192 -0.000000 0.135367 0.321082 -0.165480 -73.018838 787.744278 -0.000000 0.417519 0.277755 -0.413395
5.345000 -37.238355 -105.833588 -0.000000 0.137364 0.331640 -0.165749 -76.269741 794.409069 -0.000000 0.415798 0.267326 -0.413230
5.350000 -26.048169 -94.339650 -0.000000 0.140101 0.342104 -0.165884 -77.609406 803.106470 -0.000000 0.413541 0.257021 -0.413025
5.355000 -15.601729 -84.052062 -0.000000 0.143198 0.352398 -0.166368 -76.541834 813.836818 -0.000000 0.410695 0.246841 -0.412867
5.360000 -6.223272 -74.902225 -0.000000 0.146955 0.362468 -0.166582 -72.696049 826.312279 -0.000000 0.407246 0.236944 -0.412732
5.365000 1.780116 -66.785674 -0.000000 0.151264 0.372407 -0.166841 -65.146953 840.117073 -0.000000 0.403301 0.227153 -0.412608
5.370000 8.292180 -59.604879 -0.000000 0.156237 0.382052 -0.166795 -54.228684 854.633760 -0.000000 0.398794 0.217606 -0.412474
5.375000 13.256120 -53.265181 -0.000000 0.161912 0.391401 -0.167160 -40.221114 869.223018 -0.000000 0.393750 0.208494 -0.412262
5.380000 16.725766 -47.671605 -0.000000 0.167855 0.400410 -0.167184 -23.983426 883.193730 -0.000000 0.388179 0.199787 -0.412060
5.385000 18.704332 -42.790215 -0.000000 0.174370 0.409085 -0.167237 -4.491724 895.888744 -0.000000 0.382193 0.191106 -0.411893
